PathFileType	4	(X/Y/Z)	C:/Users/opensim2020/Desktop/walking_exp_matlab/subject03_walking06_straight_02.trc																																																																																																																																		
DataRate	CameraRate	NumFrames	NumMarkers	Units	OrigDataRate	OrigDataStartFrame	OrigNumFrames																																																																																																																														
100	100	4	44	mm	100	1400	238																																																																																																																														
Frame#	Time	LFHD			RFHD			LBHD			RBHD			C7			T10			CLAV			STRN			RBAK			LSHO			LUPA			LELB			LFRM			LWRA			LWRB			LFIN			RSHO			RUPA			RELB			RFRM			RWRA			RWRB			RFIN			LASI			RASI			LPSI			RPSI			LTHI			LKNE			LTIB			LANK			LHEE			LTOE			RTHI			RKNE			RTIB			RANK			RHEE			RTOE			*39			*40			*41			*42			*43		
		X1	Y1	Z1	X2	Y2	Z2	X3	Y3	Z3	X4	Y4	Z4	X5	Y5	Z5	X6	Y6	Z6	X7	Y7	Z7	X8	Y8	Z8	X9	Y9	Z9	X10	Y10	Z10	X11	Y11	Z11	X12	Y12	Z12	X13	Y13	Z13	X14	Y14	Z14	X15	Y15	Z15	X16	Y16	Z16	X17	Y17	Z17	X18	Y18	Z18	X19	Y19	Z19	X20	Y20	Z20	X21	Y21	Z21	X22	Y22	Z22	X23	Y23	Z23	X24	Y24	Z24	X25	Y25	Z25	X26	Y26	Z26	X27	Y27	Z27	X28	Y28	Z28	X29	Y29	Z29	X30	Y30	Z30	X31	Y31	Z31	X32	Y32	Z32	X33	Y33	Z33	X34	Y34	Z34	X35	Y35	Z35	X36	Y36	Z36	X37	Y37	Z37	X38	Y38	Z38	X39	Y39	Z39	X40	Y40	Z40	X41	Y41	Z41	X42	Y42	Z42	X43	Y43	Z43	X44	Y44	Z44
																																																																																																																																					
120	1.19	59.69145	1598.59961	937.34247	46.0573	1599.78748	1069.80737	-71.90122	1568.39453	927.3913	-80.62967	1568.65515	1057.96606	-119.82076	1404.90942	977.5954	-163.98105	1091.56836	980.6355	-1.49152	1323.88721	986.67651	38.36724	1159.42297	980.14594	-186.589	1228.92749	1065.68164	-35.15028	1367.06299	830.09448	2.62272	1184.51392	748.08459	53.26712	1073.9646	733.92493	140.27023	980.00574	746.57397	215.69734	894.43481	789.90015	200.47104	883.74133	737.35974	261.93448	829.38623	754.05872	-60.87532	1346.47766	1142.56946	-86.46154	1126.02747	1216.22998	-81.58031	1013.46552	1232.15784	-77.18333	876.81653	1237.2312	-52.75988	778.43085	1206.50732	-87.64798	776.87714	1247.65076	-70.86455	703.69781	1239.48059	2.68288	930.31134	864.10223	5.35756	925.54718	1103.07104	-158.05193	950.41498	918.43634	-155.9061	947.87512	1066.75623	-78.45383	630.92059	833.65039	-101.55686	454.34625	872.86432	-184.38579	274.13696	870.84033	-240.29948	69.97623	913.28955	-286.41327	37.62396	948.18695	-92.71718	29.59898	941.40698	21.10802	633.66211	1157.66162	112.284	477.58405	1123.24341	124.92731	291.12177	1131.93359	167.71512	77.40795	1094.91699	135.54016	36.72028	1039.82764	311.51163	65.84443	1083.25024	NaN	NaN	NaN	NaN	NaN	NaN	NaN	NaN	NaN	NaN	NaN	NaN	NaN	NaN	NaN
121	1.2	69.48765	1597.08484	938.45056	55.67226	1598.13574	1070.85168	-62.137	1567.02332	928.32654	-71.0049	1567.16211	1058.87256	-110.20213	1403.40002	978.58521	-154.47731	1090.03064	981.64465	8.11758	1322.31409	987.47998	48.02812	1157.8606	980.93964	-177.0601	1227.3783	1066.30847	-25.62988	1365.54517	830.89996	11.64355	1182.97205	748.76447	62.30522	1072.526	734.38696	150.66908	980.19598	747.50574	227.61423	896.39136	791.45477	212.40125	884.89496	739.02759	274.98984	832.00616	755.92896	-51.49395	1344.97302	1143.39075	-78.00733	1124.51367	1216.55884	-73.70132	1011.91705	1232.34045	-69.70348	875.25464	1237.16089	-44.96513	776.99341	1206.24841	-80.34142	775.27356	1247.33899	-63.75717	702.06531	1239.02979	11.70802	928.97717	864.82434	15.04706	924.00647	1103.776	-148.7883	948.9516	919.54266	-146.27136	946.26599	1067.84265	-71.33485	629.98505	833.91125	-95.73009	453.37897	873.00787	-180.87135	274.07089	870.9613	-239.8136	70.64603	913.23102	-286.1214	38.69837	948.20844	-92.73376	29.61925	941.39026	28.50891	631.33429	1158.80139	119.94118	475.32352	1123.37122	138.80914	290.45886	1133.15161	190.80518	77.81724	1097.40686	159.84702	36.36449	1042.43738	334.92035	71.24043	1085.7749	NaN	NaN	NaN	NaN	NaN	NaN	NaN	NaN	NaN	NaN	NaN	NaN	NaN	NaN	NaN
122	1.21	79.38379	1595.63293	939.56866	65.35234	1596.578	1071.99561	-52.2942	1565.63403	929.29944	-61.35239	1565.63147	1059.75806	-100.51524	1401.95898	979.62915	-144.74657	1088.46582	982.72095	17.86739	1320.84607	988.30817	57.74624	1156.3457	981.75085	-167.2778	1225.74805	1066.96021	-15.99563	1364.03809	831.73639	20.66422	1181.40967	749.38654	71.32347	1071.10388	734.94629	160.72972	980.13556	748.505	238.92332	897.86346	793.0329	223.80661	885.66016	740.84076	287.45099	834.2486	757.85797	-41.95852	1343.52112	1144.32227	-69.34393	1123.06799	1216.82996	-65.60767	1010.3725	1232.58496	-61.88602	873.64557	1237.17798	-37.04324	775.58539	1206.18115	-72.82085	773.69293	1247.00623	-56.36275	700.4101	1238.64417	20.8266	927.46271	865.43347	24.84782	922.51569	1104.43921	-139.65199	947.53754	920.72137	-136.51822	944.82153	1068.99927	-64.10349	629.01111	834.14746	-89.65376	452.42902	873.06976	-177.33611	274.08774	871.11444	-239.26729	71.42154	913.10254	-285.83569	40.10451	948.1189	-92.61041	29.55917	941.37756	36.09718	629.05219	1159.19385	127.73656	473.2041	1123.83057	151.81313	289.84708	1134.33508	211.58003	78.80727	1099.62036	182.28906	36.35828	1044.62634	356.32401	76.5798	1088.31604	NaN	NaN	NaN	NaN	NaN	NaN	NaN	NaN	NaN	NaN	NaN	NaN	NaN	NaN	NaN
123	1.22	89.2802	1594.25354	940.70245	75.14679	1595.09912	1073.10889	-42.40845	1564.29639	930.23779	-51.5387	1564.23218	1060.71558	-90.72883	1400.44885	980.55115	-134.93871	1086.9917	983.81219	27.69285	1319.35095	989.24115	67.55382	1154.87683	982.58813	-157.41521	1224.14624	1067.6134	-6.32337	1362.5509	832.58893	29.66487	1179.74182	750.15796	80.19046	1069.55127	735.63947	170.48735	979.7041	749.60883	249.77647	898.95795	794.65826	234.6666	885.99945	742.60199	299.2674	836.05811	759.81104	-32.36743	1342.00049	1145.26404	-60.60674	1121.58301	1217.28882	-57.35499	1008.80597	1232.84387	-53.94899	872.11334	1237.12256	-28.96077	774.05212	1206.04297	-65.10269	772.12494	1246.60205	-48.67046	698.82397	1238.1571	30.09974	926.04443	866.11511	34.81981	921.12457	1105.00745	-130.20265	946.07526	921.95966	-126.63105	943.46387	1070.31116	-56.75554	628.07874	834.63995	-83.66832	451.68195	873.12823	-173.70021	274.29938	871.22369	-238.58275	72.43439	912.94971	-285.61484	41.81202	947.92487	-92.51064	29.49711	941.41595	44.35641	627.23724	1160.08521	135.73819	471.26816	1124.39172	164.01682	289.33206	1135.64075	230.29907	79.90501	1101.62744	202.63664	36.57896	1046.4519	375.55435	81.27506	1090.71204	NaN	NaN	NaN	NaN	NaN	NaN	NaN	NaN	NaN	NaN	NaN	NaN	NaN	NaN	NaN
